<mxfile host="65bd71144e">
    <diagram id="EyonsR2qW5VIzLvFCrZ4" name="Page-1">
        <mxGraphModel dx="1462" dy="604" grid="1" gridSize="10" guides="1" tooltips="1" connect="1" arrows="1" fold="1" page="1" pageScale="1" pageWidth="827" pageHeight="1169" math="0" shadow="0">
            <root>
                <mxCell id="0"/>
                <mxCell id="1" parent="0"/>
                <mxCell id="2" value="0.domain" style="swimlane;fillColor=#e3c800;fontColor=#000000;strokeColor=#B09500;swimlaneFillColor=none;" vertex="1" parent="1">
                    <mxGeometry x="40" y="420" width="740" height="260" as="geometry">
                        <mxRectangle x="80" y="120" width="90" height="23" as="alternateBounds"/>
                    </mxGeometry>
                </mxCell>
                <mxCell id="3" value="" style="rounded=0;whiteSpace=wrap;html=1;fillColor=none;strokeColor=#808080;" vertex="1" parent="2">
                    <mxGeometry x="20" y="160" width="700" height="80" as="geometry"/>
                </mxCell>
                <mxCell id="4" value="&amp;nbsp;base" style="text;html=1;strokeColor=none;fillColor=#666600;align=left;verticalAlign=middle;whiteSpace=wrap;rounded=0;fontColor=#FFFFFF;" vertex="1" parent="2">
                    <mxGeometry x="30" y="150" width="40" height="20" as="geometry"/>
                </mxCell>
                <mxCell id="5" value="ValueObject" style="rounded=0;whiteSpace=wrap;html=1;strokeColor=default;strokeWidth=1;fillColor=#2a2a2a;dashed=1;" vertex="1" parent="2">
                    <mxGeometry x="220" y="180" width="120" height="40" as="geometry"/>
                </mxCell>
                <mxCell id="6" value="" style="rounded=0;whiteSpace=wrap;html=1;fillColor=none;strokeColor=#808080;" vertex="1" parent="2">
                    <mxGeometry x="20" y="50" width="160" height="80" as="geometry"/>
                </mxCell>
                <mxCell id="7" style="edgeStyle=orthogonalEdgeStyle;html=1;exitX=0.5;exitY=1;exitDx=0;exitDy=0;" edge="1" parent="2" source="9" target="27">
                    <mxGeometry relative="1" as="geometry"/>
                </mxCell>
                <mxCell id="8" style="edgeStyle=orthogonalEdgeStyle;html=1;exitX=1;exitY=0.5;exitDx=0;exitDy=0;entryX=0;entryY=0.5;entryDx=0;entryDy=0;" edge="1" parent="2" source="9" target="14">
                    <mxGeometry relative="1" as="geometry"/>
                </mxCell>
                <mxCell id="9" value="User" style="rounded=0;whiteSpace=wrap;html=1;" vertex="1" parent="2">
                    <mxGeometry x="40" y="70" width="120" height="40" as="geometry"/>
                </mxCell>
                <mxCell id="10" value="&amp;nbsp;entities" style="text;html=1;strokeColor=none;fillColor=#666600;align=left;verticalAlign=middle;whiteSpace=wrap;rounded=0;fontColor=#FFFFFF;" vertex="1" parent="2">
                    <mxGeometry x="30" y="40" width="50" height="20" as="geometry"/>
                </mxCell>
                <mxCell id="11" value="" style="rounded=0;whiteSpace=wrap;html=1;fillColor=none;strokeColor=#808080;" vertex="1" parent="2">
                    <mxGeometry x="200" y="50" width="160" height="80" as="geometry"/>
                </mxCell>
                <mxCell id="12" style="edgeStyle=orthogonalEdgeStyle;html=1;exitX=0.5;exitY=1;exitDx=0;exitDy=0;" edge="1" parent="2" source="14" target="5">
                    <mxGeometry relative="1" as="geometry"/>
                </mxCell>
                <mxCell id="13" style="edgeStyle=orthogonalEdgeStyle;html=1;exitX=1;exitY=0.5;exitDx=0;exitDy=0;entryX=0;entryY=0.5;entryDx=0;entryDy=0;" edge="1" parent="2" source="14" target="19">
                    <mxGeometry relative="1" as="geometry"/>
                </mxCell>
                <mxCell id="14" value="Name" style="rounded=0;whiteSpace=wrap;html=1;" vertex="1" parent="2">
                    <mxGeometry x="220" y="70" width="120" height="40" as="geometry"/>
                </mxCell>
                <mxCell id="15" value="&amp;nbsp;value-objects" style="text;html=1;strokeColor=none;fillColor=#666600;align=left;verticalAlign=middle;whiteSpace=wrap;rounded=0;fontColor=#FFFFFF;" vertex="1" parent="2">
                    <mxGeometry x="210" y="40" width="80" height="20" as="geometry"/>
                </mxCell>
                <mxCell id="16" value="" style="rounded=0;whiteSpace=wrap;html=1;fillColor=none;strokeColor=#808080;" vertex="1" parent="2">
                    <mxGeometry x="380" y="50" width="160" height="80" as="geometry"/>
                </mxCell>
                <mxCell id="17" style="edgeStyle=orthogonalEdgeStyle;html=1;exitX=0.5;exitY=1;exitDx=0;exitDy=0;entryX=0.5;entryY=0;entryDx=0;entryDy=0;" edge="1" parent="2" source="19" target="25">
                    <mxGeometry relative="1" as="geometry"/>
                </mxCell>
                <mxCell id="18" style="edgeStyle=orthogonalEdgeStyle;html=1;exitX=1;exitY=0.5;exitDx=0;exitDy=0;" edge="1" parent="2" source="19" target="23">
                    <mxGeometry relative="1" as="geometry"/>
                </mxCell>
                <mxCell id="19" value="MinLength" style="rounded=0;whiteSpace=wrap;html=1;" vertex="1" parent="2">
                    <mxGeometry x="400" y="70" width="120" height="40" as="geometry"/>
                </mxCell>
                <mxCell id="20" value="&amp;nbsp;validators" style="text;html=1;strokeColor=none;fillColor=#666600;align=left;verticalAlign=middle;whiteSpace=wrap;rounded=0;fontColor=#FFFFFF;" vertex="1" parent="2">
                    <mxGeometry x="390" y="40" width="60" height="20" as="geometry"/>
                </mxCell>
                <mxCell id="21" value="" style="rounded=0;whiteSpace=wrap;html=1;fillColor=none;strokeColor=#808080;" vertex="1" parent="2">
                    <mxGeometry x="560" y="50" width="160" height="80" as="geometry"/>
                </mxCell>
                <mxCell id="22" style="edgeStyle=orthogonalEdgeStyle;html=1;exitX=0.5;exitY=1;exitDx=0;exitDy=0;" edge="1" parent="2" source="23" target="26">
                    <mxGeometry relative="1" as="geometry"/>
                </mxCell>
                <mxCell id="23" value="MinLength" style="rounded=0;whiteSpace=wrap;html=1;" vertex="1" parent="2">
                    <mxGeometry x="580" y="70" width="120" height="40" as="geometry"/>
                </mxCell>
                <mxCell id="24" value="&amp;nbsp;errors" style="text;html=1;strokeColor=none;fillColor=#666600;align=left;verticalAlign=middle;whiteSpace=wrap;rounded=0;fontColor=#FFFFFF;" vertex="1" parent="2">
                    <mxGeometry x="570" y="40" width="40" height="20" as="geometry"/>
                </mxCell>
                <mxCell id="25" value="Validator" style="rounded=0;whiteSpace=wrap;html=1;dashed=1;strokeColor=default;strokeWidth=1;fillColor=#2a2a2a;" vertex="1" parent="2">
                    <mxGeometry x="400" y="180" width="120" height="40" as="geometry"/>
                </mxCell>
                <mxCell id="26" value="DomainError" style="rounded=0;whiteSpace=wrap;html=1;dashed=1;" vertex="1" parent="2">
                    <mxGeometry x="580" y="180" width="120" height="40" as="geometry"/>
                </mxCell>
                <mxCell id="27" value="Entity" style="rounded=0;whiteSpace=wrap;html=1;strokeColor=default;strokeWidth=1;fillColor=#2a2a2a;dashed=1;" vertex="1" parent="2">
                    <mxGeometry x="40" y="180" width="120" height="40" as="geometry"/>
                </mxCell>
            </root>
        </mxGraphModel>
    </diagram>
</mxfile>